<?xml version="1.0" encoding="utf-8"?>
<!-- Generator: Adobe Illustrator 19.2.1, SVG Export Plug-In . SVG Version: 6.00 Build 0)  -->
<svg version="1.1" id="Layer_1" xmlns="http://www.w3.org/2000/svg" xmlns:xlink="http://www.w3.org/1999/xlink" x="0px" y="0px"
	 viewBox="0 0 104 95" style="enable-background:new 0 0 104 95;" xml:space="preserve">
<style type="text/css">
	.st0{fill:#FFFFFF;}
</style>
<path class="st0" d="M10.5,76.4c-0.2,0.1-0.5,0.2-0.6,0.4C8.2,79.3,6.8,82,7,85.2c0.1,1.9,0.2,3.7,2,5.1c0.6,0.5,0.6,1.8,0.9,3.1
	c-2.5-0.2-4.5-0.3-6.5-0.7c-1.3-0.3-1.4-1.5-1.4-2.7c0.1-2.7,0.3-5.5,0.4-8.2c0.1-1.8-0.1-3.6,0.1-5.4c0.1-0.7,0.5-1.5,1.1-1.9
	c4.3-3,5.9-7,5.2-12.2c-0.3-1.9-0.3-3.9-0.4-5.8c-0.1-1.2-0.2-2.5-0.2-3.7c-0.2-4.2,1.9-7.3,4.8-10.1c0.5-0.5,1.1-0.8,0.7-1.8
	c-3.5-7.6-2.4-14.6,2.9-21.1c2.5-3.2,5.5-5.6,9.3-7.1c0.6-0.2,1.3-0.1,1.9-0.1c-0.3,0.5-0.5,1.1-0.9,1.6c-3.5,3.8-6.6,7.9-8.6,12.7
	c-1.2,2.8-0.2,7.8,2.2,9.7c0.3,0.2,1,0.4,1.3,0.2c4.1-1.9,8.4-1.6,12.7-1.3c4.5,0.3,9.1,0.8,13.6,0.5c3.3-0.2,6.4-1.9,9.6-2.6
	c3.9-0.8,5.4-4,7.3-6.9c2.1-3.2,4-6.6,6.5-9.4c3-3.3,6.9-5.8,11.4-6.8c0.3-0.1,0.7-0.2,0.9-0.4c3.1-2.7,6.1-5.4,9.4-8.3
	c-0.9,3.3-1.5,6.6-3,9.7c3.5,1.2,4.9,4,5.5,7.3c0.2,1.2,0.4,2.3,0.6,3.5c0,0.2-0.1,0.5-0.2,0.7c-0.8,1.6-0.7,1.8,1,2.4
	c1.3,0.4,2.5,0.9,3.7,1.5c1.3,0.7,1.4,1.4,0.4,2.4c-1.4,1.5-2.9,3-4.3,4.4c-0.2,0.2-0.5,0.3-0.8,0.4c-3.9,0.4-7.8,1.6-11.7,0.5
	c-0.3-0.1-0.9,0.4-1.1,0.7c-2.2,4.4-2.9,9.1-2.4,14c0.3,2.9,0.2,5.7-1.2,8.3c-0.5,0.9-1,1.9-1.7,2.6c-1,0.9-1.3,2-1.5,3.3
	c-0.8,5.4-1.3,10.9-1,16.4c0.1,1.7,0.5,3.1,2.4,3.6c1.5,0.4,2.4,1.5,2.2,3.4c-0.7,0.2-1.4,0.4-2.2,0.6c0.4,0.9,0.8,1.8,1.1,2.8
	c0.3,1-0.1,1.8-1.2,1.8c-1.9-0.1-3.9-0.2-5.8-0.5c-0.6-0.1-1.4-0.9-1.5-1.5c-0.7-4.3-2.7-8.2-2.8-12.7c0-1.4-1-2.7-1.5-4.1
	c-0.6-1.8-1.1-3.7-1.6-5.6c-0.2-0.6-0.1-1.4-1.1-1.2c-4.6,1-9-0.3-13.4-1.4c-3.7-0.9-7.2-2.4-10.9-3c-3.4-0.6-6.8-0.4-10.3-0.4
	c-0.5,0-1.2,0.5-1.6,0.9c-1.6,1.7-2.9,3.8-4.8,5.3c-5.7,4.5-6.8,10.6-6.6,17.3c0,0.9,0.4,1.5,1.3,2c0.6,0.3,1.1,1,1.2,1.7
	c0.3,1.5-0.1,1.9-1.7,1.8c-1.4-0.1-2.8-0.1-4.1-0.3c-1.7-0.3-1.9-1-1.8-2.8c0.3-3.5,0.3-7.1,0.5-10.7C10.9,76.5,10.7,76.4,10.5,76.4
	z"/>
</svg>
